<?xml version="1.0" encoding="UTF-8" standalone="no"?><svg xmlns="http://www.w3.org/2000/svg" xmlns:xlink="http://www.w3.org/1999/xlink" contentStyleType="text/css" height="494px" preserveAspectRatio="none" style="width:856px;height:494px;background:#FFFFFF;" version="1.1" viewBox="0 0 856 494" width="856px" zoomAndPan="magnify"><defs/><g><g id="elem_Collection"><rect codeLine="2" fill="#F1F1F1" height="48" id="Collection" rx="2.5" ry="2.5" style="stroke:#181818;stroke-width:0.5;" width="100" x="330.5" y="7"/><ellipse cx="345.5" cy="23" fill="#B4A7E5" rx="11" ry="11" style="stroke:#181818;stroke-width:1.0;"/><path d="M341.4219,18.7656 L341.4219,16.6094 L348.8125,16.6094 L348.8125,18.7656 L346.3438,18.7656 L346.3438,26.8438 L348.8125,26.8438 L348.8125,29 L341.4219,29 L341.4219,26.8438 L343.8906,26.8438 L343.8906,18.7656 L341.4219,18.7656 Z " fill="#000000"/><text fill="#000000" font-family="sans-serif" font-size="14" font-style="italic" lengthAdjust="spacing" textLength="68" x="359.5" y="27.8467">Collection</text><line style="stroke:#181818;stroke-width:0.5;" x1="331.5" x2="429.5" y1="39" y2="39"/><line style="stroke:#181818;stroke-width:0.5;" x1="331.5" x2="429.5" y1="47" y2="47"/></g><g id="elem_List"><rect codeLine="3" fill="#F1F1F1" height="48" id="List" rx="2.5" ry="2.5" style="stroke:#181818;stroke-width:0.5;" width="55" x="207" y="115"/><ellipse cx="222" cy="131" fill="#B4A7E5" rx="11" ry="11" style="stroke:#181818;stroke-width:1.0;"/><path d="M217.9219,126.7656 L217.9219,124.6094 L225.3125,124.6094 L225.3125,126.7656 L222.8438,126.7656 L222.8438,134.8438 L225.3125,134.8438 L225.3125,137 L217.9219,137 L217.9219,134.8438 L220.3906,134.8438 L220.3906,126.7656 L217.9219,126.7656 Z " fill="#000000"/><text fill="#000000" font-family="sans-serif" font-size="14" font-style="italic" lengthAdjust="spacing" textLength="23" x="236" y="135.8467">List</text><line style="stroke:#181818;stroke-width:0.5;" x1="208" x2="261" y1="147" y2="147"/><line style="stroke:#181818;stroke-width:0.5;" x1="208" x2="261" y1="155" y2="155"/></g><g id="elem_Queue"><rect codeLine="4" fill="#F1F1F1" height="48" id="Queue" rx="2.5" ry="2.5" style="stroke:#181818;stroke-width:0.5;" width="79" x="341" y="115"/><ellipse cx="356" cy="131" fill="#B4A7E5" rx="11" ry="11" style="stroke:#181818;stroke-width:1.0;"/><path d="M351.9219,126.7656 L351.9219,124.6094 L359.3125,124.6094 L359.3125,126.7656 L356.8438,126.7656 L356.8438,134.8438 L359.3125,134.8438 L359.3125,137 L351.9219,137 L351.9219,134.8438 L354.3906,134.8438 L354.3906,126.7656 L351.9219,126.7656 Z " fill="#000000"/><text fill="#000000" font-family="sans-serif" font-size="14" font-style="italic" lengthAdjust="spacing" textLength="47" x="370" y="135.8467">Queue</text><line style="stroke:#181818;stroke-width:0.5;" x1="342" x2="419" y1="147" y2="147"/><line style="stroke:#181818;stroke-width:0.5;" x1="342" x2="419" y1="155" y2="155"/></g><g id="elem_Set"><rect codeLine="5" fill="#F1F1F1" height="48" id="Set" rx="2.5" ry="2.5" style="stroke:#181818;stroke-width:0.5;" width="55" x="612" y="115"/><ellipse cx="627" cy="131" fill="#B4A7E5" rx="11" ry="11" style="stroke:#181818;stroke-width:1.0;"/><path d="M622.9219,126.7656 L622.9219,124.6094 L630.3125,124.6094 L630.3125,126.7656 L627.8438,126.7656 L627.8438,134.8438 L630.3125,134.8438 L630.3125,137 L622.9219,137 L622.9219,134.8438 L625.3906,134.8438 L625.3906,126.7656 L622.9219,126.7656 Z " fill="#000000"/><text fill="#000000" font-family="sans-serif" font-size="14" font-style="italic" lengthAdjust="spacing" textLength="23" x="641" y="135.8467">Set</text><line style="stroke:#181818;stroke-width:0.5;" x1="613" x2="666" y1="147" y2="147"/><line style="stroke:#181818;stroke-width:0.5;" x1="613" x2="666" y1="155" y2="155"/></g><g id="elem_SortedSet"><rect codeLine="6" fill="#F1F1F1" height="48" id="SortedSet" rx="2.5" ry="2.5" style="stroke:#181818;stroke-width:0.5;" width="101" x="589" y="223"/><ellipse cx="604" cy="239" fill="#B4A7E5" rx="11" ry="11" style="stroke:#181818;stroke-width:1.0;"/><path d="M599.9219,234.7656 L599.9219,232.6094 L607.3125,232.6094 L607.3125,234.7656 L604.8438,234.7656 L604.8438,242.8438 L607.3125,242.8438 L607.3125,245 L599.9219,245 L599.9219,242.8438 L602.3906,242.8438 L602.3906,234.7656 L599.9219,234.7656 Z " fill="#000000"/><text fill="#000000" font-family="sans-serif" font-size="14" font-style="italic" lengthAdjust="spacing" textLength="69" x="618" y="243.8467">SortedSet</text><line style="stroke:#181818;stroke-width:0.5;" x1="590" x2="689" y1="255" y2="255"/><line style="stroke:#181818;stroke-width:0.5;" x1="590" x2="689" y1="263" y2="263"/></g><g id="elem_Deque"><rect codeLine="7" fill="#F1F1F1" height="48" id="Deque" rx="2.5" ry="2.5" style="stroke:#181818;stroke-width:0.5;" width="79" x="315" y="223"/><ellipse cx="330" cy="239" fill="#B4A7E5" rx="11" ry="11" style="stroke:#181818;stroke-width:1.0;"/><path d="M325.9219,234.7656 L325.9219,232.6094 L333.3125,232.6094 L333.3125,234.7656 L330.8438,234.7656 L330.8438,242.8438 L333.3125,242.8438 L333.3125,245 L325.9219,245 L325.9219,242.8438 L328.3906,242.8438 L328.3906,234.7656 L325.9219,234.7656 Z " fill="#000000"/><text fill="#000000" font-family="sans-serif" font-size="14" font-style="italic" lengthAdjust="spacing" textLength="47" x="344" y="243.8467">Deque</text><line style="stroke:#181818;stroke-width:0.5;" x1="316" x2="393" y1="255" y2="255"/><line style="stroke:#181818;stroke-width:0.5;" x1="316" x2="393" y1="263" y2="263"/></g><g id="elem_AbstractSequentialList"><rect codeLine="8" fill="#F1F1F1" height="48" id="AbstractSequentialList" rx="2.5" ry="2.5" style="stroke:#181818;stroke-width:0.5;" width="185" x="169" y="439"/><ellipse cx="184" cy="455" fill="#A9DCDF" rx="11" ry="11" style="stroke:#181818;stroke-width:1.0;"/><path d="M184.1094,450.3438 L182.9531,455.4219 L185.2813,455.4219 L184.1094,450.3438 Z M182.625,448.1094 L185.6094,448.1094 L188.9688,460.5 L186.5156,460.5 L185.75,457.4375 L182.4688,457.4375 L181.7188,460.5 L179.2813,460.5 L182.625,448.1094 Z " fill="#000000"/><text fill="#000000" font-family="sans-serif" font-size="14" font-style="italic" lengthAdjust="spacing" textLength="153" x="198" y="459.8467">AbstractSequentialList</text><line style="stroke:#181818;stroke-width:0.5;" x1="170" x2="353" y1="471" y2="471"/><line style="stroke:#181818;stroke-width:0.5;" x1="170" x2="353" y1="479" y2="479"/></g><g id="elem_Vector"><rect fill="#F1F1F1" height="48" id="Vector" rx="2.5" ry="2.5" style="stroke:#181818;stroke-width:0.5;" width="77" x="7" y="223"/><ellipse cx="22" cy="239" fill="#ADD1B2" rx="11" ry="11" style="stroke:#181818;stroke-width:1.0;"/><path d="M24.9688,244.6406 Q24.3906,244.9375 23.75,245.0781 Q23.1094,245.2344 22.4063,245.2344 Q19.9063,245.2344 18.5781,243.5938 Q17.2656,241.9375 17.2656,238.8125 Q17.2656,235.6875 18.5781,234.0313 Q19.9063,232.375 22.4063,232.375 Q23.1094,232.375 23.75,232.5313 Q24.4063,232.6875 24.9688,232.9844 L24.9688,235.7031 Q24.3438,235.125 23.75,234.8594 Q23.1563,234.5781 22.5313,234.5781 Q21.1875,234.5781 20.5,235.6563 Q19.8125,236.7188 19.8125,238.8125 Q19.8125,240.9063 20.5,241.9844 Q21.1875,243.0469 22.5313,243.0469 Q23.1563,243.0469 23.75,242.7813 Q24.3438,242.5 24.9688,241.9219 L24.9688,244.6406 Z " fill="#000000"/><text fill="#000000" font-family="sans-serif" font-size="14" lengthAdjust="spacing" textLength="45" x="36" y="243.8467">Vector</text><line style="stroke:#181818;stroke-width:0.5;" x1="8" x2="83" y1="255" y2="255"/><line style="stroke:#181818;stroke-width:0.5;" x1="8" x2="83" y1="263" y2="263"/></g><g id="elem_ArrayList"><rect fill="#F1F1F1" height="48" id="ArrayList" rx="2.5" ry="2.5" style="stroke:#181818;stroke-width:0.5;" width="89" x="119" y="223"/><ellipse cx="134" cy="239" fill="#ADD1B2" rx="11" ry="11" style="stroke:#181818;stroke-width:1.0;"/><path d="M136.9688,244.6406 Q136.3906,244.9375 135.75,245.0781 Q135.1094,245.2344 134.4063,245.2344 Q131.9063,245.2344 130.5781,243.5938 Q129.2656,241.9375 129.2656,238.8125 Q129.2656,235.6875 130.5781,234.0313 Q131.9063,232.375 134.4063,232.375 Q135.1094,232.375 135.75,232.5313 Q136.4063,232.6875 136.9688,232.9844 L136.9688,235.7031 Q136.3438,235.125 135.75,234.8594 Q135.1563,234.5781 134.5313,234.5781 Q133.1875,234.5781 132.5,235.6563 Q131.8125,236.7188 131.8125,238.8125 Q131.8125,240.9063 132.5,241.9844 Q133.1875,243.0469 134.5313,243.0469 Q135.1563,243.0469 135.75,242.7813 Q136.3438,242.5 136.9688,241.9219 L136.9688,244.6406 Z " fill="#000000"/><text fill="#000000" font-family="sans-serif" font-size="14" lengthAdjust="spacing" textLength="57" x="148" y="243.8467">ArrayList</text><line style="stroke:#181818;stroke-width:0.5;" x1="120" x2="207" y1="255" y2="255"/><line style="stroke:#181818;stroke-width:0.5;" x1="120" x2="207" y1="263" y2="263"/></g><g id="elem_LinkedList"><rect fill="#F1F1F1" height="48" id="LinkedList" rx="2.5" ry="2.5" style="stroke:#181818;stroke-width:0.5;" width="100" x="211.5" y="331"/><ellipse cx="226.5" cy="347" fill="#ADD1B2" rx="11" ry="11" style="stroke:#181818;stroke-width:1.0;"/><path d="M229.4688,352.6406 Q228.8906,352.9375 228.25,353.0781 Q227.6094,353.2344 226.9063,353.2344 Q224.4063,353.2344 223.0781,351.5938 Q221.7656,349.9375 221.7656,346.8125 Q221.7656,343.6875 223.0781,342.0313 Q224.4063,340.375 226.9063,340.375 Q227.6094,340.375 228.25,340.5313 Q228.9063,340.6875 229.4688,340.9844 L229.4688,343.7031 Q228.8438,343.125 228.25,342.8594 Q227.6563,342.5781 227.0313,342.5781 Q225.6875,342.5781 225,343.6563 Q224.3125,344.7188 224.3125,346.8125 Q224.3125,348.9063 225,349.9844 Q225.6875,351.0469 227.0313,351.0469 Q227.6563,351.0469 228.25,350.7813 Q228.8438,350.5 229.4688,349.9219 L229.4688,352.6406 Z " fill="#000000"/><text fill="#000000" font-family="sans-serif" font-size="14" lengthAdjust="spacing" textLength="68" x="240.5" y="351.8467">LinkedList</text><line style="stroke:#181818;stroke-width:0.5;" x1="212.5" x2="310.5" y1="363" y2="363"/><line style="stroke:#181818;stroke-width:0.5;" x1="212.5" x2="310.5" y1="371" y2="371"/></g><g id="elem_Stack"><rect fill="#F1F1F1" height="48" id="Stack" rx="2.5" ry="2.5" style="stroke:#181818;stroke-width:0.5;" width="70" x="10.5" y="331"/><ellipse cx="25.5" cy="347" fill="#ADD1B2" rx="11" ry="11" style="stroke:#181818;stroke-width:1.0;"/><path d="M28.4688,352.6406 Q27.8906,352.9375 27.25,353.0781 Q26.6094,353.2344 25.9063,353.2344 Q23.4063,353.2344 22.0781,351.5938 Q20.7656,349.9375 20.7656,346.8125 Q20.7656,343.6875 22.0781,342.0313 Q23.4063,340.375 25.9063,340.375 Q26.6094,340.375 27.25,340.5313 Q27.9063,340.6875 28.4688,340.9844 L28.4688,343.7031 Q27.8438,343.125 27.25,342.8594 Q26.6563,342.5781 26.0313,342.5781 Q24.6875,342.5781 24,343.6563 Q23.3125,344.7188 23.3125,346.8125 Q23.3125,348.9063 24,349.9844 Q24.6875,351.0469 26.0313,351.0469 Q26.6563,351.0469 27.25,350.7813 Q27.8438,350.5 28.4688,349.9219 L28.4688,352.6406 Z " fill="#000000"/><text fill="#000000" font-family="sans-serif" font-size="14" lengthAdjust="spacing" textLength="38" x="39.5" y="351.8467">Stack</text><line style="stroke:#181818;stroke-width:0.5;" x1="11.5" x2="79.5" y1="363" y2="363"/><line style="stroke:#181818;stroke-width:0.5;" x1="11.5" x2="79.5" y1="371" y2="371"/></g><g id="elem_PriorityQueue"><rect fill="#F1F1F1" height="48" id="PriorityQueue" rx="2.5" ry="2.5" style="stroke:#181818;stroke-width:0.5;" width="125" x="429" y="223"/><ellipse cx="444" cy="239" fill="#ADD1B2" rx="11" ry="11" style="stroke:#181818;stroke-width:1.0;"/><path d="M446.9688,244.6406 Q446.3906,244.9375 445.75,245.0781 Q445.1094,245.2344 444.4063,245.2344 Q441.9063,245.2344 440.5781,243.5938 Q439.2656,241.9375 439.2656,238.8125 Q439.2656,235.6875 440.5781,234.0313 Q441.9063,232.375 444.4063,232.375 Q445.1094,232.375 445.75,232.5313 Q446.4063,232.6875 446.9688,232.9844 L446.9688,235.7031 Q446.3438,235.125 445.75,234.8594 Q445.1563,234.5781 444.5313,234.5781 Q443.1875,234.5781 442.5,235.6563 Q441.8125,236.7188 441.8125,238.8125 Q441.8125,240.9063 442.5,241.9844 Q443.1875,243.0469 444.5313,243.0469 Q445.1563,243.0469 445.75,242.7813 Q446.3438,242.5 446.9688,241.9219 L446.9688,244.6406 Z " fill="#000000"/><text fill="#000000" font-family="sans-serif" font-size="14" lengthAdjust="spacing" textLength="93" x="458" y="243.8467">PriorityQueue</text><line style="stroke:#181818;stroke-width:0.5;" x1="430" x2="553" y1="255" y2="255"/><line style="stroke:#181818;stroke-width:0.5;" x1="430" x2="553" y1="263" y2="263"/></g><g id="elem_ArrayDeque"><rect fill="#F1F1F1" height="48" id="ArrayDeque" rx="2.5" ry="2.5" style="stroke:#181818;stroke-width:0.5;" width="113" x="347" y="331"/><ellipse cx="362" cy="347" fill="#ADD1B2" rx="11" ry="11" style="stroke:#181818;stroke-width:1.0;"/><path d="M364.9688,352.6406 Q364.3906,352.9375 363.75,353.0781 Q363.1094,353.2344 362.4063,353.2344 Q359.9063,353.2344 358.5781,351.5938 Q357.2656,349.9375 357.2656,346.8125 Q357.2656,343.6875 358.5781,342.0313 Q359.9063,340.375 362.4063,340.375 Q363.1094,340.375 363.75,340.5313 Q364.4063,340.6875 364.9688,340.9844 L364.9688,343.7031 Q364.3438,343.125 363.75,342.8594 Q363.1563,342.5781 362.5313,342.5781 Q361.1875,342.5781 360.5,343.6563 Q359.8125,344.7188 359.8125,346.8125 Q359.8125,348.9063 360.5,349.9844 Q361.1875,351.0469 362.5313,351.0469 Q363.1563,351.0469 363.75,350.7813 Q364.3438,350.5 364.9688,349.9219 L364.9688,352.6406 Z " fill="#000000"/><text fill="#000000" font-family="sans-serif" font-size="14" lengthAdjust="spacing" textLength="81" x="376" y="351.8467">ArrayDeque</text><line style="stroke:#181818;stroke-width:0.5;" x1="348" x2="459" y1="363" y2="363"/><line style="stroke:#181818;stroke-width:0.5;" x1="348" x2="459" y1="371" y2="371"/></g><g id="elem_HashSet"><rect fill="#F1F1F1" height="48" id="HashSet" rx="2.5" ry="2.5" style="stroke:#181818;stroke-width:0.5;" width="90" x="729.5" y="223"/><ellipse cx="744.5" cy="239" fill="#ADD1B2" rx="11" ry="11" style="stroke:#181818;stroke-width:1.0;"/><path d="M747.4688,244.6406 Q746.8906,244.9375 746.25,245.0781 Q745.6094,245.2344 744.9063,245.2344 Q742.4063,245.2344 741.0781,243.5938 Q739.7656,241.9375 739.7656,238.8125 Q739.7656,235.6875 741.0781,234.0313 Q742.4063,232.375 744.9063,232.375 Q745.6094,232.375 746.25,232.5313 Q746.9063,232.6875 747.4688,232.9844 L747.4688,235.7031 Q746.8438,235.125 746.25,234.8594 Q745.6563,234.5781 745.0313,234.5781 Q743.6875,234.5781 743,235.6563 Q742.3125,236.7188 742.3125,238.8125 Q742.3125,240.9063 743,241.9844 Q743.6875,243.0469 745.0313,243.0469 Q745.6563,243.0469 746.25,242.7813 Q746.8438,242.5 747.4688,241.9219 L747.4688,244.6406 Z " fill="#000000"/><text fill="#000000" font-family="sans-serif" font-size="14" lengthAdjust="spacing" textLength="58" x="758.5" y="243.8467">HashSet</text><line style="stroke:#181818;stroke-width:0.5;" x1="730.5" x2="818.5" y1="255" y2="255"/><line style="stroke:#181818;stroke-width:0.5;" x1="730.5" x2="818.5" y1="263" y2="263"/></g><g id="elem_LinkedHashSet"><rect fill="#F1F1F1" height="48" id="LinkedHashSet" rx="2.5" ry="2.5" style="stroke:#181818;stroke-width:0.5;" width="135" x="714" y="331"/><ellipse cx="729" cy="347" fill="#ADD1B2" rx="11" ry="11" style="stroke:#181818;stroke-width:1.0;"/><path d="M731.9688,352.6406 Q731.3906,352.9375 730.75,353.0781 Q730.1094,353.2344 729.4063,353.2344 Q726.9063,353.2344 725.5781,351.5938 Q724.2656,349.9375 724.2656,346.8125 Q724.2656,343.6875 725.5781,342.0313 Q726.9063,340.375 729.4063,340.375 Q730.1094,340.375 730.75,340.5313 Q731.4063,340.6875 731.9688,340.9844 L731.9688,343.7031 Q731.3438,343.125 730.75,342.8594 Q730.1563,342.5781 729.5313,342.5781 Q728.1875,342.5781 727.5,343.6563 Q726.8125,344.7188 726.8125,346.8125 Q726.8125,348.9063 727.5,349.9844 Q728.1875,351.0469 729.5313,351.0469 Q730.1563,351.0469 730.75,350.7813 Q731.3438,350.5 731.9688,349.9219 L731.9688,352.6406 Z " fill="#000000"/><text fill="#000000" font-family="sans-serif" font-size="14" lengthAdjust="spacing" textLength="103" x="743" y="351.8467">LinkedHashSet</text><line style="stroke:#181818;stroke-width:0.5;" x1="715" x2="848" y1="363" y2="363"/><line style="stroke:#181818;stroke-width:0.5;" x1="715" x2="848" y1="371" y2="371"/></g><g id="elem_TreeSet"><rect fill="#F1F1F1" height="48" id="TreeSet" rx="2.5" ry="2.5" style="stroke:#181818;stroke-width:0.5;" width="87" x="592" y="331"/><ellipse cx="607" cy="347" fill="#ADD1B2" rx="11" ry="11" style="stroke:#181818;stroke-width:1.0;"/><path d="M609.9688,352.6406 Q609.3906,352.9375 608.75,353.0781 Q608.1094,353.2344 607.4063,353.2344 Q604.9063,353.2344 603.5781,351.5938 Q602.2656,349.9375 602.2656,346.8125 Q602.2656,343.6875 603.5781,342.0313 Q604.9063,340.375 607.4063,340.375 Q608.1094,340.375 608.75,340.5313 Q609.4063,340.6875 609.9688,340.9844 L609.9688,343.7031 Q609.3438,343.125 608.75,342.8594 Q608.1563,342.5781 607.5313,342.5781 Q606.1875,342.5781 605.5,343.6563 Q604.8125,344.7188 604.8125,346.8125 Q604.8125,348.9063 605.5,349.9844 Q606.1875,351.0469 607.5313,351.0469 Q608.1563,351.0469 608.75,350.7813 Q609.3438,350.5 609.9688,349.9219 L609.9688,352.6406 Z " fill="#000000"/><text fill="#000000" font-family="sans-serif" font-size="14" lengthAdjust="spacing" textLength="55" x="621" y="351.8467">TreeSet</text><line style="stroke:#181818;stroke-width:0.5;" x1="593" x2="678" y1="363" y2="363"/><line style="stroke:#181818;stroke-width:0.5;" x1="593" x2="678" y1="371" y2="371"/></g><g id="link_Collection_List"><path codeLine="10" d="M332.329,66.974 C309.05,83.874 281.949,103.551 262.181,117.902 " fill="none" id="Collection-backto-List" style="stroke:#181818;stroke-width:1.0;"/><polygon fill="none" points="328.523,61.086,348.82,55,336.748,72.415,328.523,61.086" style="stroke:#181818;stroke-width:1.0;"/></g><g id="link_Collection_Queue"><path codeLine="11" d="M380.5,75.024 C380.5,88.579 380.5,103.038 380.5,114.678 " fill="none" id="Collection-backto-Queue" style="stroke:#181818;stroke-width:1.0;"/><polygon fill="none" points="373.5,75,380.5,55,387.5,75,373.5,75" style="stroke:#181818;stroke-width:1.0;"/></g><g id="link_Collection_Set"><path codeLine="12" d="M449.439,60.214 C502.588,81.967 573.303,110.908 611.745,126.641 " fill="none" id="Collection-backto-Set" style="stroke:#181818;stroke-width:1.0;"/><polygon fill="none" points="446.603,66.617,430.745,52.564,451.906,53.661,446.603,66.617" style="stroke:#181818;stroke-width:1.0;"/></g><g id="link_List_Vector"><path codeLine="14" d="M189.151,165.434 C157.164,183.374 114.766,207.152 84.3352,224.219 " fill="none" id="List-backto-Vector" style="stroke:#181818;stroke-width:1.0;stroke-dasharray:7.0,7.0;"/><polygon fill="none" points="185.744,159.319,206.612,155.641,192.593,171.529,185.744,159.319" style="stroke:#181818;stroke-width:1.0;"/></g><g id="link_List_ArrayList"><path codeLine="15" d="M207.938,179.656 C198.23,194.15 187.568,210.068 179.121,222.678 " fill="none" id="List-backto-ArrayList" style="stroke:#181818;stroke-width:1.0;stroke-dasharray:7.0,7.0;"/><polygon fill="none" points="202.148,175.722,219.094,163,213.78,183.513,202.148,175.722" style="stroke:#181818;stroke-width:1.0;"/></g><g id="link_List_LinkedList"><path codeLine="16" d="M239.968,183.341 C245.584,227.848 254.112,295.442 258.563,330.72 " fill="none" id="List-backto-LinkedList" style="stroke:#181818;stroke-width:1.0;stroke-dasharray:7.0,7.0;"/><polygon fill="none" points="233,184.028,237.441,163.309,246.889,182.276,233,184.028" style="stroke:#181818;stroke-width:1.0;"/></g><g id="link_Vector_Stack"><path codeLine="17" d="M45.5,291.024 C45.5,304.579 45.5,319.038 45.5,330.678 " fill="none" id="Vector-backto-Stack" style="stroke:#181818;stroke-width:1.0;"/><polygon fill="none" points="38.5001,291,45.5,271,52.5001,291,38.5001,291" style="stroke:#181818;stroke-width:1.0;"/></g><g id="link_Queue_PriorityQueue"><path codeLine="18" d="M419.539,177.28 C435.362,192.391 453.148,209.375 467.078,222.678 " fill="none" id="Queue-backto-PriorityQueue" style="stroke:#181818;stroke-width:1.0;stroke-dasharray:7.0,7.0;"/><polygon fill="none" points="414.215,181.876,404.585,163,423.884,171.751,414.215,181.876" style="stroke:#181818;stroke-width:1.0;"/></g><g id="link_Queue_Deque"><path codeLine="19" d="M370.066,182.54 C366.707,196.235 363.11,210.9 360.22,222.678 " fill="none" id="Queue-backto-Deque" style="stroke:#181818;stroke-width:1.0;"/><polygon fill="none" points="363.295,180.757,374.858,163,376.892,184.092,363.295,180.757" style="stroke:#181818;stroke-width:1.0;"/></g><g id="link_Deque_LinkedList"><path codeLine="20" d="M320.961,286.227 C307.915,301.097 293.39,317.652 281.961,330.678 " fill="none" id="Deque-backto-LinkedList" style="stroke:#181818;stroke-width:1.0;stroke-dasharray:7.0,7.0;"/><polygon fill="none" points="315.868,281.418,334.32,271,326.392,290.651,315.868,281.418" style="stroke:#181818;stroke-width:1.0;"/></g><g id="link_Deque_ArrayDeque"><path codeLine="21" d="M373.719,289.575 C380.175,303.543 387.146,318.622 392.719,330.678 " fill="none" id="Deque-backto-ArrayDeque" style="stroke:#181818;stroke-width:1.0;stroke-dasharray:7.0,7.0;"/><polygon fill="none" points="367.17,292.092,365.132,271,379.878,286.217,367.17,292.092" style="stroke:#181818;stroke-width:1.0;"/></g><g id="link_Set_HashSet"><path codeLine="22" d="M682.877,174.059 C703.179,190 726.833,208.572 745.021,222.853 " fill="none" id="Set-backto-HashSet" style="stroke:#181818;stroke-width:1.0;stroke-dasharray:7.0,7.0;"/><polygon fill="none" points="678.552,179.563,667.145,161.706,687.198,168.552,678.552,179.563" style="stroke:#181818;stroke-width:1.0;"/></g><g id="link_Set_SortedSet"><path codeLine="23" d="M639.5,183.024 C639.5,196.579 639.5,211.038 639.5,222.678 " fill="none" id="Set-backto-SortedSet" style="stroke:#181818;stroke-width:1.0;"/><polygon fill="none" points="632.5,183,639.5,163,646.5,183,632.5,183" style="stroke:#181818;stroke-width:1.0;"/></g><g id="link_HashSet_LinkedHashSet"><path codeLine="24" d="M777.341,291.024 C778.236,304.579 779.191,319.038 779.96,330.678 " fill="none" id="HashSet-backto-LinkedHashSet" style="stroke:#181818;stroke-width:1.0;"/><polygon fill="none" points="770.352,291.418,776.019,271,784.322,290.496,770.352,291.418" style="stroke:#181818;stroke-width:1.0;"/></g><g id="link_SortedSet_TreeSet"><path codeLine="25" d="M637.876,291.024 C637.365,304.579 636.819,319.038 636.38,330.678 " fill="none" id="SortedSet-backto-TreeSet" style="stroke:#181818;stroke-width:1.0;stroke-dasharray:7.0,7.0;"/><polygon fill="none" points="630.883,290.722,638.632,271,644.873,291.25,630.883,290.722" style="stroke:#181818;stroke-width:1.0;"/></g><g id="link_LinkedList_AbstractSequentialList"><path codeLine="26" d="M261.5,379 C261.5,390.5885 261.5,405.0294 261.5,418.6013 " fill="none" id="LinkedList-to-AbstractSequentialList" style="stroke:#181818;stroke-width:1.0;"/><polygon fill="none" points="268.5,418.6785,261.5,438.6784,254.5,418.6784,268.5,418.6785" style="stroke:#181818;stroke-width:1.0;"/></g></g></svg>