<?xml version="1.0" encoding="UTF-8" standalone="no"?><svg xmlns="http://www.w3.org/2000/svg" xmlns:xlink="http://www.w3.org/1999/xlink" contentStyleType="text/css" height="386px" preserveAspectRatio="none" style="width:689px;height:386px;background:#FFFFFF;" version="1.1" viewBox="0 0 689 386" width="689px" zoomAndPan="magnify"><defs/><g><g id="elem_Map"><rect codeLine="2" fill="#F1F1F1" height="48" id="Map" rx="2.5" ry="2.5" style="stroke:#181818;stroke-width:0.5;" width="61" x="177" y="7"/><ellipse cx="192" cy="23" fill="#B4A7E5" rx="11" ry="11" style="stroke:#181818;stroke-width:1.0;"/><path d="M187.9219,18.7656 L187.9219,16.6094 L195.3125,16.6094 L195.3125,18.7656 L192.8438,18.7656 L192.8438,26.8438 L195.3125,26.8438 L195.3125,29 L187.9219,29 L187.9219,26.8438 L190.3906,26.8438 L190.3906,18.7656 L187.9219,18.7656 Z " fill="#000000"/><text fill="#000000" font-family="sans-serif" font-size="14" font-style="italic" lengthAdjust="spacing" textLength="29" x="206" y="27.8467">Map</text><line style="stroke:#181818;stroke-width:0.5;" x1="178" x2="237" y1="39" y2="39"/><line style="stroke:#181818;stroke-width:0.5;" x1="178" x2="237" y1="47" y2="47"/></g><g id="elem_SortedMap"><rect codeLine="3" fill="#F1F1F1" height="48" id="SortedMap" rx="2.5" ry="2.5" style="stroke:#181818;stroke-width:0.5;" width="107" x="154" y="115"/><ellipse cx="169" cy="131" fill="#B4A7E5" rx="11" ry="11" style="stroke:#181818;stroke-width:1.0;"/><path d="M164.9219,126.7656 L164.9219,124.6094 L172.3125,124.6094 L172.3125,126.7656 L169.8438,126.7656 L169.8438,134.8438 L172.3125,134.8438 L172.3125,137 L164.9219,137 L164.9219,134.8438 L167.3906,134.8438 L167.3906,126.7656 L164.9219,126.7656 Z " fill="#000000"/><text fill="#000000" font-family="sans-serif" font-size="14" font-style="italic" lengthAdjust="spacing" textLength="75" x="183" y="135.8467">SortedMap</text><line style="stroke:#181818;stroke-width:0.5;" x1="155" x2="260" y1="147" y2="147"/><line style="stroke:#181818;stroke-width:0.5;" x1="155" x2="260" y1="155" y2="155"/></g><g id="elem_NavigableMap"><rect codeLine="4" fill="#F1F1F1" height="48" id="NavigableMap" rx="2.5" ry="2.5" style="stroke:#181818;stroke-width:0.5;" width="127" x="144" y="223"/><ellipse cx="159" cy="239" fill="#B4A7E5" rx="11" ry="11" style="stroke:#181818;stroke-width:1.0;"/><path d="M154.9219,234.7656 L154.9219,232.6094 L162.3125,232.6094 L162.3125,234.7656 L159.8438,234.7656 L159.8438,242.8438 L162.3125,242.8438 L162.3125,245 L154.9219,245 L154.9219,242.8438 L157.3906,242.8438 L157.3906,234.7656 L154.9219,234.7656 Z " fill="#000000"/><text fill="#000000" font-family="sans-serif" font-size="14" font-style="italic" lengthAdjust="spacing" textLength="95" x="173" y="243.8467">NavigableMap</text><line style="stroke:#181818;stroke-width:0.5;" x1="145" x2="270" y1="255" y2="255"/><line style="stroke:#181818;stroke-width:0.5;" x1="145" x2="270" y1="263" y2="263"/></g><g id="elem_Dictionary"><rect codeLine="5" fill="#F1F1F1" height="48" id="Dictionary" rx="2.5" ry="2.5" style="stroke:#181818;stroke-width:0.5;" width="100" x="13.5" y="115"/><ellipse cx="28.5" cy="131" fill="#A9DCDF" rx="11" ry="11" style="stroke:#181818;stroke-width:1.0;"/><path d="M28.6094,126.3438 L27.4531,131.4219 L29.7813,131.4219 L28.6094,126.3438 Z M27.125,124.1094 L30.1094,124.1094 L33.4688,136.5 L31.0156,136.5 L30.25,133.4375 L26.9688,133.4375 L26.2188,136.5 L23.7813,136.5 L27.125,124.1094 Z " fill="#000000"/><text fill="#000000" font-family="sans-serif" font-size="14" font-style="italic" lengthAdjust="spacing" textLength="68" x="42.5" y="135.8467">Dictionary</text><line style="stroke:#181818;stroke-width:0.5;" x1="14.5" x2="112.5" y1="147" y2="147"/><line style="stroke:#181818;stroke-width:0.5;" x1="14.5" x2="112.5" y1="155" y2="155"/></g><g id="elem_AbstractMap"><rect codeLine="6" fill="#F1F1F1" height="48" id="AbstractMap" rx="2.5" ry="2.5" style="stroke:#181818;stroke-width:0.5;" width="118" x="331.5" y="115"/><ellipse cx="346.5" cy="131" fill="#A9DCDF" rx="11" ry="11" style="stroke:#181818;stroke-width:1.0;"/><path d="M346.6094,126.3438 L345.4531,131.4219 L347.7813,131.4219 L346.6094,126.3438 Z M345.125,124.1094 L348.1094,124.1094 L351.4688,136.5 L349.0156,136.5 L348.25,133.4375 L344.9688,133.4375 L344.2188,136.5 L341.7813,136.5 L345.125,124.1094 Z " fill="#000000"/><text fill="#000000" font-family="sans-serif" font-size="14" font-style="italic" lengthAdjust="spacing" textLength="86" x="360.5" y="135.8467">AbstractMap</text><line style="stroke:#181818;stroke-width:0.5;" x1="332.5" x2="448.5" y1="147" y2="147"/><line style="stroke:#181818;stroke-width:0.5;" x1="332.5" x2="448.5" y1="155" y2="155"/></g><g id="elem_HashMap"><rect fill="#F1F1F1" height="48" id="HashMap" rx="2.5" ry="2.5" style="stroke:#181818;stroke-width:0.5;" width="96" x="377.5" y="223"/><ellipse cx="392.5" cy="239" fill="#ADD1B2" rx="11" ry="11" style="stroke:#181818;stroke-width:1.0;"/><path d="M395.4688,244.6406 Q394.8906,244.9375 394.25,245.0781 Q393.6094,245.2344 392.9063,245.2344 Q390.4063,245.2344 389.0781,243.5938 Q387.7656,241.9375 387.7656,238.8125 Q387.7656,235.6875 389.0781,234.0313 Q390.4063,232.375 392.9063,232.375 Q393.6094,232.375 394.25,232.5313 Q394.9063,232.6875 395.4688,232.9844 L395.4688,235.7031 Q394.8438,235.125 394.25,234.8594 Q393.6563,234.5781 393.0313,234.5781 Q391.6875,234.5781 391,235.6563 Q390.3125,236.7188 390.3125,238.8125 Q390.3125,240.9063 391,241.9844 Q391.6875,243.0469 393.0313,243.0469 Q393.6563,243.0469 394.25,242.7813 Q394.8438,242.5 395.4688,241.9219 L395.4688,244.6406 Z " fill="#000000"/><text fill="#000000" font-family="sans-serif" font-size="14" lengthAdjust="spacing" textLength="64" x="406.5" y="243.8467">HashMap</text><line style="stroke:#181818;stroke-width:0.5;" x1="378.5" x2="472.5" y1="255" y2="255"/><line style="stroke:#181818;stroke-width:0.5;" x1="378.5" x2="472.5" y1="263" y2="263"/></g><g id="elem_ConcurrentHashMap"><rect fill="#F1F1F1" height="48" id="ConcurrentHashMap" rx="2.5" ry="2.5" style="stroke:#181818;stroke-width:0.5;" width="174" x="508.5" y="223"/><ellipse cx="523.5" cy="239" fill="#ADD1B2" rx="11" ry="11" style="stroke:#181818;stroke-width:1.0;"/><path d="M526.4688,244.6406 Q525.8906,244.9375 525.25,245.0781 Q524.6094,245.2344 523.9063,245.2344 Q521.4063,245.2344 520.0781,243.5938 Q518.7656,241.9375 518.7656,238.8125 Q518.7656,235.6875 520.0781,234.0313 Q521.4063,232.375 523.9063,232.375 Q524.6094,232.375 525.25,232.5313 Q525.9063,232.6875 526.4688,232.9844 L526.4688,235.7031 Q525.8438,235.125 525.25,234.8594 Q524.6563,234.5781 524.0313,234.5781 Q522.6875,234.5781 522,235.6563 Q521.3125,236.7188 521.3125,238.8125 Q521.3125,240.9063 522,241.9844 Q522.6875,243.0469 524.0313,243.0469 Q524.6563,243.0469 525.25,242.7813 Q525.8438,242.5 526.4688,241.9219 L526.4688,244.6406 Z " fill="#000000"/><text fill="#000000" font-family="sans-serif" font-size="14" lengthAdjust="spacing" textLength="142" x="537.5" y="243.8467">ConcurrentHashMap</text><line style="stroke:#181818;stroke-width:0.5;" x1="509.5" x2="681.5" y1="255" y2="255"/><line style="stroke:#181818;stroke-width:0.5;" x1="509.5" x2="681.5" y1="263" y2="263"/></g><g id="elem_LinkedHashMap"><rect fill="#F1F1F1" height="48" id="LinkedHashMap" rx="2.5" ry="2.5" style="stroke:#181818;stroke-width:0.5;" width="141" x="355" y="331"/><ellipse cx="370" cy="347" fill="#ADD1B2" rx="11" ry="11" style="stroke:#181818;stroke-width:1.0;"/><path d="M372.9688,352.6406 Q372.3906,352.9375 371.75,353.0781 Q371.1094,353.2344 370.4063,353.2344 Q367.9063,353.2344 366.5781,351.5938 Q365.2656,349.9375 365.2656,346.8125 Q365.2656,343.6875 366.5781,342.0313 Q367.9063,340.375 370.4063,340.375 Q371.1094,340.375 371.75,340.5313 Q372.4063,340.6875 372.9688,340.9844 L372.9688,343.7031 Q372.3438,343.125 371.75,342.8594 Q371.1563,342.5781 370.5313,342.5781 Q369.1875,342.5781 368.5,343.6563 Q367.8125,344.7188 367.8125,346.8125 Q367.8125,348.9063 368.5,349.9844 Q369.1875,351.0469 370.5313,351.0469 Q371.1563,351.0469 371.75,350.7813 Q372.3438,350.5 372.9688,349.9219 L372.9688,352.6406 Z " fill="#000000"/><text fill="#000000" font-family="sans-serif" font-size="14" lengthAdjust="spacing" textLength="109" x="384" y="351.8467">LinkedHashMap</text><line style="stroke:#181818;stroke-width:0.5;" x1="356" x2="495" y1="363" y2="363"/><line style="stroke:#181818;stroke-width:0.5;" x1="356" x2="495" y1="371" y2="371"/></g><g id="elem_TreeMap"><rect fill="#F1F1F1" height="48" id="TreeMap" rx="2.5" ry="2.5" style="stroke:#181818;stroke-width:0.5;" width="93" x="194" y="331"/><ellipse cx="209" cy="347" fill="#ADD1B2" rx="11" ry="11" style="stroke:#181818;stroke-width:1.0;"/><path d="M211.9688,352.6406 Q211.3906,352.9375 210.75,353.0781 Q210.1094,353.2344 209.4063,353.2344 Q206.9063,353.2344 205.5781,351.5938 Q204.2656,349.9375 204.2656,346.8125 Q204.2656,343.6875 205.5781,342.0313 Q206.9063,340.375 209.4063,340.375 Q210.1094,340.375 210.75,340.5313 Q211.4063,340.6875 211.9688,340.9844 L211.9688,343.7031 Q211.3438,343.125 210.75,342.8594 Q210.1563,342.5781 209.5313,342.5781 Q208.1875,342.5781 207.5,343.6563 Q206.8125,344.7188 206.8125,346.8125 Q206.8125,348.9063 207.5,349.9844 Q208.1875,351.0469 209.5313,351.0469 Q210.1563,351.0469 210.75,350.7813 Q211.3438,350.5 211.9688,349.9219 L211.9688,352.6406 Z " fill="#000000"/><text fill="#000000" font-family="sans-serif" font-size="14" lengthAdjust="spacing" textLength="61" x="223" y="351.8467">TreeMap</text><line style="stroke:#181818;stroke-width:0.5;" x1="195" x2="286" y1="363" y2="363"/><line style="stroke:#181818;stroke-width:0.5;" x1="195" x2="286" y1="371" y2="371"/></g><g id="elem_Hashtable"><rect fill="#F1F1F1" height="48" id="Hashtable" rx="2.5" ry="2.5" style="stroke:#181818;stroke-width:0.5;" width="101" x="8" y="223"/><ellipse cx="23" cy="239" fill="#ADD1B2" rx="11" ry="11" style="stroke:#181818;stroke-width:1.0;"/><path d="M25.9688,244.6406 Q25.3906,244.9375 24.75,245.0781 Q24.1094,245.2344 23.4063,245.2344 Q20.9063,245.2344 19.5781,243.5938 Q18.2656,241.9375 18.2656,238.8125 Q18.2656,235.6875 19.5781,234.0313 Q20.9063,232.375 23.4063,232.375 Q24.1094,232.375 24.75,232.5313 Q25.4063,232.6875 25.9688,232.9844 L25.9688,235.7031 Q25.3438,235.125 24.75,234.8594 Q24.1563,234.5781 23.5313,234.5781 Q22.1875,234.5781 21.5,235.6563 Q20.8125,236.7188 20.8125,238.8125 Q20.8125,240.9063 21.5,241.9844 Q22.1875,243.0469 23.5313,243.0469 Q24.1563,243.0469 24.75,242.7813 Q25.3438,242.5 25.9688,241.9219 L25.9688,244.6406 Z " fill="#000000"/><text fill="#000000" font-family="sans-serif" font-size="14" lengthAdjust="spacing" textLength="69" x="37" y="243.8467">Hashtable</text><line style="stroke:#181818;stroke-width:0.5;" x1="9" x2="108" y1="255" y2="255"/><line style="stroke:#181818;stroke-width:0.5;" x1="9" x2="108" y1="263" y2="263"/></g><g id="elem_Properties"><rect fill="#F1F1F1" height="48" id="Properties" rx="2.5" ry="2.5" style="stroke:#181818;stroke-width:0.5;" width="103" x="7" y="331"/><ellipse cx="22" cy="347" fill="#ADD1B2" rx="11" ry="11" style="stroke:#181818;stroke-width:1.0;"/><path d="M24.9688,352.6406 Q24.3906,352.9375 23.75,353.0781 Q23.1094,353.2344 22.4063,353.2344 Q19.9063,353.2344 18.5781,351.5938 Q17.2656,349.9375 17.2656,346.8125 Q17.2656,343.6875 18.5781,342.0313 Q19.9063,340.375 22.4063,340.375 Q23.1094,340.375 23.75,340.5313 Q24.4063,340.6875 24.9688,340.9844 L24.9688,343.7031 Q24.3438,343.125 23.75,342.8594 Q23.1563,342.5781 22.5313,342.5781 Q21.1875,342.5781 20.5,343.6563 Q19.8125,344.7188 19.8125,346.8125 Q19.8125,348.9063 20.5,349.9844 Q21.1875,351.0469 22.5313,351.0469 Q23.1563,351.0469 23.75,350.7813 Q24.3438,350.5 24.9688,349.9219 L24.9688,352.6406 Z " fill="#000000"/><text fill="#000000" font-family="sans-serif" font-size="14" lengthAdjust="spacing" textLength="71" x="36" y="351.8467">Properties</text><line style="stroke:#181818;stroke-width:0.5;" x1="8" x2="109" y1="363" y2="363"/><line style="stroke:#181818;stroke-width:0.5;" x1="8" x2="109" y1="371" y2="371"/></g><g id="link_Map_AbstractMap"><path codeLine="8" d="M255.785,59.968 C285.301,77.065 322.606,98.674 350.472,114.814 " fill="none" id="Map-backto-AbstractMap" style="stroke:#181818;stroke-width:1.0;stroke-dasharray:7.0,7.0;"/><polygon fill="none" points="251.928,65.824,238.13,49.742,258.945,53.709,251.928,65.824" style="stroke:#181818;stroke-width:1.0;"/></g><g id="link_Map_Dictionary"><path codeLine="9" d="M160.625,66.505 C139.123,82.333 114.204,100.676 94.9902,114.82 " fill="none" id="Map-backto-Dictionary" style="stroke:#181818;stroke-width:1.0;stroke-dasharray:7.0,7.0;"/><polygon fill="none" points="156.705,60.699,176.961,54.48,165.004,71.974,156.705,60.699" style="stroke:#181818;stroke-width:1.0;"/></g><g id="link_Map_SortedMap"><path codeLine="10" d="M207.5,75.024 C207.5,88.579 207.5,103.038 207.5,114.678 " fill="none" id="Map-backto-SortedMap" style="stroke:#181818;stroke-width:1.0;"/><polygon fill="none" points="200.5,75,207.5,55,214.5,75,200.5,75" style="stroke:#181818;stroke-width:1.0;"/></g><g id="link_AbstractMap_HashMap"><path codeLine="11" d="M404.387,182.057 C408.954,195.889 413.864,210.761 417.799,222.678 " fill="none" id="AbstractMap-backto-HashMap" style="stroke:#181818;stroke-width:1.0;"/><polygon fill="none" points="397.718,184.187,398.094,163,411.012,179.797,397.718,184.187" style="stroke:#181818;stroke-width:1.0;"/></g><g id="link_AbstractMap_ConcurrentHashMap"><path codeLine="12" d="M452.776,172.201 C484.381,188.543 522.05,208.021 550.751,222.862 " fill="none" id="AbstractMap-backto-ConcurrentHashMap" style="stroke:#181818;stroke-width:1.0;"/><polygon fill="none" points="449.532,178.405,434.982,163,455.963,165.969,449.532,178.405" style="stroke:#181818;stroke-width:1.0;"/></g><g id="link_HashMap_LinkedHashMap"><path codeLine="13" d="M425.5,291.0236 C425.5,304.5792 425.5,319.0381 425.5,330.6784 " fill="none" id="HashMap-backto-LinkedHashMap" style="stroke:#181818;stroke-width:1.0;"/><polygon fill="none" points="418.5,291.0005,425.5,271,432.5,291.0004,418.5,291.0005" style="stroke:#181818;stroke-width:1.0;"/></g><g id="link_SortedMap_NavigableMap"><path codeLine="14" d="M207.5,183.024 C207.5,196.579 207.5,211.038 207.5,222.678 " fill="none" id="SortedMap-backto-NavigableMap" style="stroke:#181818;stroke-width:1.0;"/><polygon fill="none" points="200.5,183,207.5,163,214.5,183,200.5,183" style="stroke:#181818;stroke-width:1.0;"/></g><g id="link_NavigableMap_TreeMap"><path codeLine="15" d="M220.744,290.5399 C225.007,304.2345 229.572,318.8995 233.24,330.6784 " fill="none" id="NavigableMap-backto-TreeMap" style="stroke:#181818;stroke-width:1.0;stroke-dasharray:7.0,7.0;"/><polygon fill="none" points="213.922,292.1772,214.661,271,227.289,288.0157,213.922,292.1772" style="stroke:#181818;stroke-width:1.0;"/></g><g id="link_AbstractMap_TreeMap"><path codeLine="16" d="M362.642,179.745 C331.532,224.128 282.222,294.4773 256.818,330.7196 " fill="none" id="AbstractMap-backto-TreeMap" style="stroke:#181818;stroke-width:1.0;"/><polygon fill="none" points="356.95,175.669,374.162,163.309,368.414,183.704,356.95,175.669" style="stroke:#181818;stroke-width:1.0;"/></g><g id="link_Dictionary_Hashtable"><path codeLine="17" d="M61.4706,183.024 C60.8312,196.579 60.1491,211.038 59.6001,222.678 " fill="none" id="Dictionary-backto-Hashtable" style="stroke:#181818;stroke-width:1.0;"/><polygon fill="none" points="54.4804,182.648,62.4151,163,68.4649,183.308,54.4804,182.648" style="stroke:#181818;stroke-width:1.0;"/></g><g id="link_Hashtable_Properties"><path codeLine="18" d="M58.5,291.0236 C58.5,304.5792 58.5,319.0381 58.5,330.6784 " fill="none" id="Hashtable-backto-Properties" style="stroke:#181818;stroke-width:1.0;"/><polygon fill="none" points="51.5001,291.0005,58.5,271,65.5001,291.0004,51.5001,291.0005" style="stroke:#181818;stroke-width:1.0;"/></g></g></svg>